<svg xmlns="http://www.w3.org/2000/svg" viewBox="0 0 100 100" width="40" height="40">
    <g transform="matrix(1.25,0,0,-1.25,-43.476084,158.71586)">
        <g transform="matrix(1.0820754,0,0,1.0820754,74.778702,46.972693)">
            <path fill="#13669d" d="m0,0c9.186,0,17.586,3.351,24.051,8.895l-1.525,3.301-1.756,3.808-18.222,39.485h-2.746-2.402-0.079l-15.324-33.206-2.856-6.189c-5.344,5.341-8.65,12.719-8.65,20.872,0,16.3,13.209,29.511,29.509,29.511,2.955,0,5.803-0.437,8.496-1.244l2.787,6.942c-3.555,1.138-7.347,1.757-11.283,1.757-20.417,0-36.964-16.548-36.964-36.966,0-20.417,16.547-36.966,36.964-36.966m0,20.333c3.536,0,6.815,1.103,9.511,2.983l0.191-0.415,0.014,0.011,0.234-0.506,2.313-5.185,2.585-5.762c-4.362-2.544-9.434-4.002-14.848-4.002-5.481,0-10.611,1.496-15.007,4.097l4.55,9.862,0.895,1.938c2.705-1.903,6.002-3.021,9.562-3.021m6.414,9.73c-1.68-1.564-3.935-2.521-6.414-2.521-2.496,0-4.765,0.97-6.451,2.554l0.18,0.389,0.137,0.299,6.069,14.068,2.363-5.296,3.769-8.74,0.347-0.753z"/>
        </g>
    </g>
</svg>

